<svg width="47" height="41" viewBox="0 0 47 41" fill="none" xmlns="http://www.w3.org/2000/svg">
<path d="M43.6709 0.14374C44.4025 -0.138865 45.2286 0.00163174 45.8272 0.508975C46.4263 1.01702 46.7002 1.80967 46.541 2.57831L38.9492 39.093C38.8008 39.8071 38.306 40.3911 37.625 40.6545L37.5567 40.4767L37.625 40.6535V40.6545C37.3732 40.7518 37.1103 40.799 36.8496 40.799C36.4047 40.799 35.9645 40.6598 35.5918 40.3889L25.2305 32.8664C24.9425 32.6573 24.5483 32.6679 24.2725 32.8928L18.5274 37.5764C17.9764 38.0269 17.2392 38.1742 16.5567 37.9689C15.8737 37.7635 15.3396 37.2333 15.128 36.5519L11.2735 24.1574L1.39358 20.4699C0.550958 20.1542 0.00439037 19.3693 2.30271e-05 18.4709C-0.00405785 17.5735 0.534579 16.7852 1.37209 16.4621L43.6709 0.14374ZM44.628 1.92401C44.5796 1.8831 44.4771 1.8233 44.3399 1.87616L2.04006 18.1935C1.88751 18.2525 1.85608 18.3721 1.85647 18.4621C1.85692 18.553 1.88965 18.6739 2.04397 18.7316L12.3496 22.5773C12.6186 22.6778 12.8259 22.8979 12.9112 23.1721L16.9004 36.0012C16.9399 36.1282 17.0374 36.1742 17.0918 36.1906C17.1459 36.2069 17.2515 36.2221 17.3535 36.1389L23.0996 31.4543C23.5837 31.0599 24.1765 30.8605 24.7696 30.8605C25.3132 30.8606 25.8581 31.0282 26.3213 31.3644L36.6836 38.8879C36.7937 38.9677 36.9016 38.9441 36.9561 38.923C37.0104 38.9019 37.1054 38.8467 37.1328 38.715L44.7237 2.20136C44.7536 2.05672 44.6765 1.96539 44.628 1.92401ZM35.0547 8.20233C35.6116 7.86031 36.3283 7.9945 36.7227 8.51386C37.1164 9.03275 37.053 9.75835 36.5752 10.2014L20.7647 24.8976C20.3681 25.2669 20.1097 25.7669 20.0371 26.3039L19.4981 30.2951L19.4766 30.4191C19.3406 31.0306 18.8282 31.4783 18.1914 31.5246C18.1556 31.5272 18.1194 31.5285 18.084 31.5285L17.9658 31.5236C17.3811 31.4759 16.8857 31.077 16.7197 30.4953L14.6475 23.216C14.2984 21.9935 14.8115 20.6714 15.8955 20.0021L35.0547 8.20233ZM17.5156 30.0295L17.5166 30.0275V30.0217C17.5163 30.0242 17.516 30.027 17.5156 30.0295ZM16.8701 21.5822C16.4908 21.8164 16.3105 22.2793 16.4326 22.7072L17.9365 27.9914L18.1973 26.0549C18.3273 25.0936 18.7907 24.2005 19.501 23.5392L30.9053 12.9377L16.8701 21.5822Z" fill="#D01651"/>
</svg>
