<svg width="1762" height="691" viewBox="0 0 1762 691" fill="none" xmlns="http://www.w3.org/2000/svg">
<path d="M1758.29 609.586C1753.32 609.586 1748.56 607.522 1745.05 603.848C1741.54 600.173 1739.57 595.19 1739.57 589.993C1739.57 584.796 1741.54 579.811 1745.05 576.136C1748.56 572.461 1753.33 570.397 1758.29 570.397C1759.19 570.406 1760.08 570.481 1760.97 570.619L1760.97 539.49C1760.09 539.645 1759.19 539.72 1758.29 539.714C1753.33 539.714 1748.56 537.65 1745.05 533.975C1741.54 530.301 1739.57 525.317 1739.57 520.12C1739.57 514.923 1741.54 509.939 1745.06 506.264C1748.57 502.589 1753.33 500.524 1758.29 500.524C1759.19 500.534 1760.09 500.608 1760.97 500.747L1760.98 469.618C1760.09 469.757 1759.19 469.831 1758.3 469.841C1753.33 469.841 1748.57 467.777 1745.06 464.103C1741.55 460.428 1739.58 455.444 1739.58 450.247C1739.58 445.05 1741.55 440.066 1745.06 436.391C1748.57 432.716 1753.33 430.652 1758.3 430.652C1759.2 430.661 1760.09 430.735 1760.98 430.874L1760.98 399.745C1760.09 399.884 1759.2 399.959 1758.3 399.969C1753.34 399.969 1748.57 397.905 1745.06 394.23C1741.55 390.555 1739.58 385.572 1739.58 380.375C1739.58 375.178 1741.55 370.194 1745.06 366.519C1748.58 362.844 1753.34 360.779 1758.3 360.779C1759.2 360.788 1760.09 360.863 1760.98 361.002L1760.98 329.873C1760.1 330.012 1759.2 330.086 1758.3 330.096C1753.34 330.096 1748.58 328.032 1745.07 324.358C1741.56 320.683 1739.58 315.699 1739.58 310.502C1739.58 305.305 1741.56 300.321 1745.07 296.646C1748.58 292.971 1753.34 290.907 1758.31 290.906C1759.2 290.916 1760.1 290.99 1760.99 291.129L1760.99 260C1760.1 260.139 1759.21 260.214 1758.31 260.224C1753.34 260.224 1748.58 258.159 1745.07 254.485C1741.56 250.81 1739.59 245.827 1739.59 240.63C1739.59 235.433 1741.56 230.449 1745.07 226.774C1748.58 223.099 1753.35 221.034 1758.31 221.034C1759.21 221.043 1760.1 221.118 1760.99 221.256L1760.99 190.128C1760.1 190.267 1759.21 190.341 1758.31 190.351C1753.35 190.351 1748.59 188.287 1745.07 184.613C1741.56 180.938 1739.59 175.954 1739.59 170.757C1739.59 165.56 1741.56 160.576 1745.08 156.901C1748.59 153.226 1753.35 151.161 1758.32 151.161C1759.21 151.171 1760.11 151.245 1760.99 151.384L1761 120.255C1760.11 120.394 1759.21 120.468 1758.32 120.478C1753.35 120.478 1748.59 118.414 1745.08 114.74C1741.57 111.065 1739.6 106.082 1739.6 100.885C1739.6 95.6878 1741.57 90.7034 1745.08 87.0285C1748.59 83.3535 1753.35 81.2889 1758.32 81.2886C1759.22 81.2823 1760.11 81.3567 1761 81.5113L1761 49.4268C1759.97 49.4268 1758.93 49.4269 1757.96 49.4269C1745.62 49.4537 1733.77 44.3804 1724.99 35.3111C1716.21 26.2418 1711.21 13.9105 1711.08 1L1391.42 1.0401C1391.11 13.8161 1386.04 25.9594 1377.3 34.8809C1368.55 43.8024 1356.83 48.7959 1344.62 48.7966C1332.4 48.7973 1320.68 43.8052 1311.93 34.8848C1303.19 25.9643 1298.12 13.8216 1297.81 1.04565L48.2512 1.11965C48.1381 14.0387 43.155 26.3888 34.3861 35.483C25.6172 44.5771 13.7721 49.6795 1.42807 49.6797L1.00188 49.6798L1 81.5414L1.97415 81.5413C4.43276 81.5412 6.86727 82.0479 9.13867 83.0325C11.4101 84.0171 13.4739 85.4602 15.2123 87.2797C16.9507 89.0991 18.3296 91.2589 19.2703 93.6362C20.2111 96.0135 20.6952 98.5616 20.695 101.135C20.6949 103.708 20.2105 106.256 19.2695 108.634C18.3284 111.011 16.9493 113.171 15.2107 114.991C13.472 116.811 11.408 118.254 9.13653 119.239C6.86501 120.224 4.43045 120.731 1.97184 120.731L1.089 120.731L1.08719 151.478L1.97002 151.477C6.9354 151.477 11.6973 153.541 15.2082 157.216C18.719 160.89 20.6912 165.874 20.6909 171.071C20.6906 176.268 18.7178 181.252 15.2065 184.927C11.6952 188.602 6.93309 190.667 1.9677 190.667L1.08487 190.667L1.08305 221.414L1.96588 221.414C4.42449 221.413 6.85899 221.92 9.1304 222.905C11.4018 223.889 13.4656 225.333 15.204 227.152C16.9424 228.972 18.3214 231.132 19.2621 233.509C20.2028 235.886 20.6869 238.434 20.6868 241.007C20.6866 243.581 20.2022 246.129 19.2612 248.506C18.3202 250.884 16.941 253.044 15.2024 254.864C13.4638 256.683 11.3998 258.127 9.12826 259.112C6.85674 260.096 4.42218 260.603 1.96357 260.604L1.08074 260.604L1.07892 291.35L1.96175 291.35C6.92714 291.35 11.6891 293.414 15.1999 297.089C18.7107 300.763 20.6829 305.747 20.6826 310.944C20.6823 316.141 18.7095 321.125 15.1983 324.8C11.687 328.475 6.92482 330.539 1.95943 330.54L1.0766 330.54L1.07479 361.286L1.95762 361.286C4.41623 361.286 6.85072 361.793 9.12212 362.777C11.3935 363.762 13.4574 365.205 15.1958 367.025C16.9341 368.844 18.3131 371.004 19.2538 373.381C20.1945 375.759 20.6786 378.307 20.6785 380.88C20.6783 383.453 20.1939 386.002 19.2529 388.379C18.3119 390.756 16.9327 392.917 15.1941 394.736C13.4555 396.556 11.3915 397.999 9.11999 398.984C6.84847 399.969 4.4139 400.476 1.95529 400.476L1.07247 400.476L1.07065 431.223L1.95347 431.223C6.91886 431.222 11.6808 433.287 15.1916 436.961C18.7025 440.636 20.6747 445.619 20.6744 450.816C20.674 456.013 18.7013 460.998 15.19 464.672C11.6787 468.347 6.91655 470.412 1.95117 470.412L1.06833 470.412L1.06651 501.159L1.94935 501.159C6.91474 501.159 11.6766 503.223 15.1875 506.897C18.6983 510.572 20.6705 515.556 20.6702 520.753C20.6699 525.949 18.6971 530.933 15.1858 534.608C11.6746 538.283 6.91241 540.349 1.94702 540.349L1.0642 540.349L1.06238 571.127L1.94521 571.127C6.91059 571.127 11.6725 573.191 15.1834 576.865C18.6942 580.54 20.6664 585.524 20.6661 590.721C20.6658 595.918 18.693 600.902 15.1817 604.577C11.6704 608.252 6.90828 610.317 1.94289 610.317H1.06006L1.05827 640.522H1.48446C13.902 640.521 25.8106 645.683 34.5906 654.872C43.3705 664.062 48.3026 676.526 48.3018 689.522L48.3018 690L1297.77 689.926C1297.77 689.926 1297.77 689.607 1297.77 689.448C1297.77 676.452 1302.71 663.987 1311.49 654.797C1320.27 645.606 1332.18 640.443 1344.6 640.442C1357.01 640.441 1368.92 645.603 1377.7 654.793C1386.48 663.982 1391.41 676.446 1391.41 689.442V689.92L1711.04 689.88C1711.04 689.88 1711.04 689.562 1711.04 689.403C1711.05 676.414 1715.98 663.959 1724.75 654.772C1733.52 645.584 1745.42 640.414 1757.83 640.397C1758.89 640.397 1759.93 640.396 1760.87 640.396L1760.88 609.236C1760.02 609.428 1759.16 609.545 1758.29 609.586ZM1345.02 609.632C1341.32 609.632 1337.7 608.483 1334.62 606.33C1331.54 604.177 1329.14 601.117 1327.73 597.536C1326.31 593.956 1325.94 590.016 1326.66 586.215C1327.39 582.414 1329.17 578.923 1331.79 576.182C1334.41 573.441 1337.74 571.575 1341.37 570.819C1345.01 570.063 1348.77 570.45 1352.19 571.933C1355.61 573.416 1358.54 575.927 1360.59 579.149C1362.65 582.372 1363.75 586.16 1363.75 590.036C1363.75 595.233 1361.77 600.217 1358.26 603.892C1354.75 607.567 1349.99 609.631 1345.02 609.632ZM1345.03 539.759C1341.33 539.759 1337.71 538.61 1334.63 536.457C1331.55 534.305 1329.15 531.244 1327.73 527.664C1326.32 524.084 1325.94 520.144 1326.67 516.343C1327.39 512.541 1329.17 509.05 1331.79 506.309C1334.41 503.569 1337.75 501.702 1341.38 500.946C1345.01 500.19 1348.77 500.578 1352.2 502.061C1355.62 503.543 1358.54 506.055 1360.6 509.277C1362.65 512.5 1363.75 516.288 1363.75 520.163C1363.75 522.736 1363.27 525.285 1362.33 527.662C1361.38 530.039 1360.01 532.2 1358.27 534.019C1356.53 535.839 1354.46 537.282 1352.19 538.267C1349.92 539.252 1347.49 539.759 1345.03 539.759ZM1345.03 469.887C1341.33 469.887 1337.71 468.738 1334.63 466.585C1331.55 464.432 1329.15 461.372 1327.74 457.791C1326.32 454.211 1325.95 450.271 1326.67 446.47C1327.39 442.669 1329.18 439.178 1331.8 436.437C1334.41 433.697 1337.75 431.83 1341.38 431.074C1345.01 430.318 1348.78 430.705 1352.2 432.188C1355.62 433.671 1358.54 436.182 1360.6 439.405C1362.66 442.627 1363.76 446.415 1363.76 450.291C1363.76 455.487 1361.78 460.472 1358.27 464.147C1354.76 467.822 1350 469.886 1345.03 469.887ZM1345.04 400.014C1341.33 400.015 1337.71 398.866 1334.64 396.713C1331.56 394.56 1329.16 391.5 1327.74 387.919C1326.32 384.339 1325.95 380.399 1326.68 376.598C1327.4 372.797 1329.18 369.305 1331.8 366.564C1334.42 363.824 1337.75 361.957 1341.39 361.201C1345.02 360.445 1348.78 360.833 1352.2 362.316C1355.62 363.798 1358.55 366.31 1360.61 369.532C1362.66 372.754 1363.76 376.543 1363.76 380.418C1363.76 382.992 1363.28 385.54 1362.33 387.917C1361.39 390.295 1360.01 392.454 1358.28 394.274C1356.54 396.094 1354.47 397.538 1352.2 398.522C1349.93 399.507 1347.5 400.014 1345.04 400.014ZM1345.04 330.142C1341.34 330.142 1337.72 328.993 1334.64 326.84C1331.56 324.687 1329.16 321.627 1327.74 318.046C1326.33 314.466 1325.96 310.526 1326.68 306.725C1327.4 302.924 1329.19 299.433 1331.8 296.692C1334.42 293.951 1337.76 292.085 1341.39 291.329C1345.02 290.572 1348.79 290.96 1352.21 292.443C1355.63 293.926 1358.55 296.437 1360.61 299.659C1362.67 302.882 1363.76 306.67 1363.76 310.546C1363.76 313.119 1363.28 315.667 1362.34 318.044C1361.4 320.422 1360.02 322.582 1358.28 324.402C1356.54 326.221 1354.48 327.665 1352.21 328.65C1349.93 329.634 1347.5 330.141 1345.04 330.142ZM1345.04 260.269C1341.34 260.27 1337.72 259.12 1334.64 256.967C1331.56 254.814 1329.17 251.754 1327.75 248.174C1326.33 244.594 1325.96 240.654 1326.68 236.853C1327.41 233.051 1329.19 229.56 1331.81 226.819C1334.43 224.079 1337.76 222.212 1341.39 221.456C1345.03 220.7 1348.79 221.088 1352.21 222.57C1355.63 224.053 1358.56 226.565 1360.61 229.787C1362.67 233.009 1363.77 236.798 1363.77 240.673C1363.77 243.246 1363.28 245.795 1362.34 248.172C1361.4 250.549 1360.02 252.709 1358.28 254.529C1356.54 256.349 1354.48 257.792 1352.21 258.777C1349.94 259.762 1347.5 260.269 1345.04 260.269ZM1345.05 190.397C1341.35 190.397 1337.73 189.248 1334.65 187.095C1331.57 184.942 1329.17 181.882 1327.75 178.301C1326.34 174.721 1325.97 170.781 1326.69 166.98C1327.41 163.179 1329.19 159.687 1331.81 156.947C1334.43 154.206 1337.77 152.34 1341.4 151.583C1345.03 150.827 1348.79 151.215 1352.22 152.698C1355.64 154.181 1358.56 156.692 1360.62 159.914C1362.67 163.137 1363.77 166.925 1363.77 170.8C1363.77 173.374 1363.29 175.922 1362.35 178.299C1361.41 180.677 1360.03 182.837 1358.29 184.657C1356.55 186.476 1354.49 187.92 1352.21 188.905C1349.94 189.889 1347.51 190.396 1345.05 190.397ZM1345.05 120.524C1341.35 120.524 1337.73 119.375 1334.65 117.222C1331.57 115.069 1329.17 112.009 1327.76 108.429C1326.34 104.848 1325.97 100.908 1326.69 97.1074C1327.41 93.3063 1329.2 89.8147 1331.82 87.0741C1334.43 84.3336 1337.77 82.4672 1341.4 81.7109C1345.03 80.9546 1348.8 81.3424 1352.22 82.8253C1355.64 84.3082 1358.56 86.8197 1360.62 90.0419C1362.68 93.2642 1363.78 97.0526 1363.78 100.928C1363.78 103.501 1363.29 106.049 1362.35 108.427C1361.41 110.804 1360.03 112.964 1358.29 114.784C1356.55 116.604 1354.49 118.047 1352.22 119.032C1349.95 120.017 1347.51 120.524 1345.05 120.524Z" fill="#F7F9EB" stroke="black" stroke-width="2" stroke-linejoin="round"/>
</svg>
