<svg width="53" height="43" viewBox="0 0 53 43" fill="none" xmlns="http://www.w3.org/2000/svg">
<path d="M51.3227 21.1291C51.3227 21.1291 51.3227 11.769 50.1733 7.28575C49.5418 4.81536 47.673 2.86652 45.2955 2.19858C40.9967 1 26.1614 1 26.1614 1C26.1614 1 11.3347 1 7.02712 2.19858C4.65838 2.85736 2.7897 4.80623 2.14927 7.28575C1 11.769 1 21.1291 1 21.1291C1 21.1291 1 30.4891 2.14927 34.9723C2.78094 37.4426 4.6496 39.3916 7.02712 40.0594C11.3347 41.2581 26.1614 41.2581 26.1614 41.2581C26.1614 41.2581 40.9967 41.2581 45.2955 40.0594C47.6642 39.4007 49.533 37.452 50.1733 34.9723C51.3227 30.4891 51.3227 21.1291 51.3227 21.1291Z" stroke="#D01651" stroke-width="2" stroke-linejoin="round"/>
<path d="M20.3691 12.3228V29.9357L35.4659 21.1292L20.3691 12.3228Z" stroke="#D01651" stroke-width="2" stroke-linejoin="round"/>
</svg>
